<svg xmlns="http://www.w3.org/2000/svg" viewBox="0 0 54 180" fill="none">
  <defs>
    <linearGradient id="blade" x1="27" y1="37" x2="27" y2="175" gradientUnits="userSpaceOnUse">
      <stop offset="0" stop-color="#ffffff"/>
      <stop offset="0.38" stop-color="#f7f7f3"/>
      <stop offset="0.7" stop-color="#cbc7bd"/>
      <stop offset="1" stop-color="#ffffff"/>
    </linearGradient>
    <linearGradient id="bladeShade" x1="27" y1="45" x2="35" y2="172" gradientUnits="userSpaceOnUse">
      <stop offset="0" stop-color="#ffffff" stop-opacity="0.8"/>
      <stop offset="0.5" stop-color="#d8d3c8" stop-opacity="0.55"/>
      <stop offset="1" stop-color="#ffffff" stop-opacity="0.7"/>
    </linearGradient>
    <linearGradient id="guard" x1="8" y1="25" x2="47" y2="67" gradientUnits="userSpaceOnUse">
      <stop offset="0" stop-color="#fff8df"/>
      <stop offset="0.35" stop-color="#b9ab86"/>
      <stop offset="0.7" stop-color="#ffffff"/>
      <stop offset="1" stop-color="#7d7568"/>
    </linearGradient>
    <filter id="glow" x="-28%" y="-10%" width="156%" height="120%" color-interpolation-filters="sRGB">
      <feDropShadow dx="0" dy="0" stdDeviation="2" flood-color="#f1d889" flood-opacity="0.45"/>
      <feDropShadow dx="0" dy="0" stdDeviation="0.8" flood-color="#ffffff" flood-opacity="0.7"/>
    </filter>
  </defs>

  <g filter="url(#glow)">
    <path d="M20.2 56.5H33.8L32.2 164.4L27 176.8L21.8 164.4L20.2 56.5Z" fill="url(#blade)"/>
    <path d="M27 56.5H33.8L32.2 164.4L27 176.8V56.5Z" fill="url(#bladeShade)"/>
    <path d="M20.2 56.5H33.8L32.2 164.4L27 176.8L21.8 164.4L20.2 56.5Z" stroke="#f7f2e7" stroke-width="1.6" stroke-linejoin="round"/>
    <path d="M27 62.8V166.8" stroke="#ffffff" stroke-width="1.4" stroke-linecap="round" opacity="0.68"/>

    <path d="M10.5 55.6C10.8 47 14.8 39.7 21 35.7C23.3 34.2 25.2 32.4 27 30.2C28.8 32.4 30.7 34.2 33 35.7C39.2 39.7 43.2 47 43.5 55.6C36.1 54.2 30.8 51.1 27 46.4C23.2 51.1 17.9 54.2 10.5 55.6Z" fill="url(#guard)"/>
    <path d="M15.4 57.5C20.4 55.5 24.2 52.8 27 49.2C29.8 52.8 33.6 55.5 38.6 57.5C35.6 62.3 31.7 65.1 27 65.6C22.3 65.1 18.4 62.3 15.4 57.5Z" fill="#f5f1e6"/>
    <path d="M19.5 54.8C21.9 53.6 23.7 52.1 25 50.3C24.5 54.4 23.3 57.6 21.3 59.8C20.4 58.3 19.8 56.7 19.5 54.8Z" fill="#171612"/>
    <path d="M34.5 54.8C32.1 53.6 30.3 52.1 29 50.3C29.5 54.4 30.7 57.6 32.7 59.8C33.6 58.3 34.2 56.7 34.5 54.8Z" fill="#171612"/>

    <path d="M27 18.5L33 33.4C31.2 39.1 29.2 43.5 27 46.4C24.8 43.5 22.8 39.1 21 33.4L27 18.5Z" fill="url(#guard)"/>
    <path d="M24.5 5.2H29.5L29.1 25.6H24.9L24.5 5.2Z" fill="#eee8d8"/>
    <path d="M22.1 5.1C23.7 2.1 25.3 0.7 27 0.7C28.7 0.7 30.3 2.1 31.9 5.1L29.2 8.2H24.8L22.1 5.1Z" fill="#2b2924"/>
    <path d="M17.2 42.5C19.1 46.1 21.5 48.7 24.3 50.1" stroke="#ffffff" stroke-width="1.5" stroke-linecap="round" opacity="0.7"/>
    <path d="M36.8 42.5C34.9 46.1 32.5 48.7 29.7 50.1" stroke="#ffffff" stroke-width="1.5" stroke-linecap="round" opacity="0.7"/>
  </g>
</svg>
